<svg xmlns="http://www.w3.org/2000/svg" xmlns:xlink="http://www.w3.org/1999/xlink" width="1024" zoomAndPan="magnify" viewBox="0 0 768 767.999994" height="1024" preserveAspectRatio="xMidYMid meet" version="1.0"><defs><clipPath id="138d60bf59"><path d="M 185.441406 36.417969 L 582.191406 36.417969 L 582.191406 731.667969 L 185.441406 731.667969 Z M 185.441406 36.417969 " clip-rule="nonzero"/></clipPath></defs><g clip-path="url(#138d60bf59)"><path fill="#ffd058" d="M 185.476562 36.53125 L 185.476562 599.085938 L 218.574219 599.085938 L 218.574219 565.988281 L 251.671875 565.988281 L 251.671875 532.917969 L 218.574219 532.917969 L 218.574219 102.6875 L 251.671875 102.6875 L 251.671875 69.621094 L 218.574219 69.621094 L 218.574219 36.523438 L 185.476562 36.523438 Z M 251.671875 102.695312 L 251.671875 135.792969 L 284.738281 135.792969 L 284.738281 102.695312 Z M 284.738281 135.792969 L 284.738281 168.890625 L 317.835938 168.890625 L 317.835938 135.792969 Z M 317.835938 168.890625 L 317.835938 201.988281 L 350.933594 201.988281 L 350.933594 168.890625 Z M 350.933594 201.988281 L 350.933594 235.085938 L 384.03125 235.085938 L 384.03125 201.988281 Z M 384.03125 235.085938 L 384.03125 268.183594 L 417.128906 268.183594 L 417.128906 235.085938 Z M 417.128906 268.183594 L 417.128906 301.277344 L 450.226562 301.277344 L 450.226562 268.183594 Z M 450.226562 301.277344 L 450.226562 334.347656 L 483.320312 334.347656 L 483.320312 301.277344 Z M 483.320312 334.347656 L 483.320312 367.441406 L 516.390625 367.441406 L 516.390625 334.347656 Z M 516.390625 367.441406 L 516.390625 400.539062 L 417.128906 400.539062 L 417.128906 499.828125 L 450.226562 499.828125 L 450.226562 433.632812 L 582.585938 433.632812 L 582.585938 400.539062 L 549.488281 400.539062 L 549.488281 367.441406 Z M 450.226562 499.828125 L 450.226562 565.996094 L 483.320312 565.996094 L 483.320312 499.828125 Z M 483.320312 565.996094 L 483.320312 632.1875 L 516.390625 632.1875 L 516.390625 565.996094 Z M 516.390625 632.1875 L 516.390625 698.382812 L 549.484375 698.382812 L 549.484375 632.1875 Z M 516.390625 698.382812 L 450.226562 698.382812 L 450.226562 731.476562 L 516.390625 731.476562 Z M 450.226562 698.382812 L 450.226562 632.1875 L 417.128906 632.1875 L 417.128906 698.382812 Z M 417.128906 632.1875 L 417.128906 565.996094 L 384.03125 565.996094 L 384.03125 632.1875 Z M 384.03125 565.996094 L 384.03125 499.828125 L 350.933594 499.828125 L 350.933594 565.996094 Z M 350.933594 499.828125 L 350.933594 433.636719 L 317.835938 433.636719 L 317.835938 466.734375 L 284.738281 466.734375 L 284.738281 499.832031 L 350.933594 499.832031 Z M 284.738281 499.828125 L 251.671875 499.828125 L 251.671875 532.925781 L 284.738281 532.925781 Z M 284.738281 499.828125 " fill-opacity="1" fill-rule="evenodd"/></g><path fill="#ffffff" d="M 218.574219 102.695312 L 218.574219 532.925781 L 251.671875 532.925781 L 251.671875 499.828125 L 284.738281 499.828125 L 284.738281 466.734375 L 317.835938 466.734375 L 317.835938 433.636719 L 350.933594 433.636719 L 350.933594 499.828125 L 384.03125 499.828125 L 384.03125 565.992188 L 417.128906 565.992188 L 417.128906 632.1875 L 450.226562 632.1875 L 450.226562 698.378906 L 516.390625 698.378906 L 516.390625 632.1875 L 483.320312 632.1875 L 483.320312 565.992188 L 450.226562 565.992188 L 450.226562 499.828125 L 417.128906 499.828125 L 417.128906 400.542969 L 516.386719 400.542969 L 516.386719 367.445312 L 483.320312 367.445312 L 483.320312 334.347656 L 450.222656 334.347656 L 450.222656 301.28125 L 417.125 301.28125 L 417.125 268.183594 L 384.027344 268.183594 L 384.027344 235.085938 L 350.929688 235.085938 L 350.929688 201.988281 L 317.835938 201.988281 L 317.835938 168.890625 L 284.738281 168.890625 L 284.738281 135.792969 L 251.671875 135.792969 L 251.671875 102.695312 Z M 218.574219 102.695312 " fill-opacity="1" fill-rule="nonzero"/></svg>