<svg xmlns="http://www.w3.org/2000/svg" xmlns:xlink="http://www.w3.org/1999/xlink" width="1024" zoomAndPan="magnify" viewBox="0 0 768 767.999994" height="1024" preserveAspectRatio="xMidYMid meet" version="1.0"><defs><clipPath id="9910d6c05e"><path d="M 134.652344 61.3125 L 633.402344 61.3125 L 633.402344 706.3125 L 134.652344 706.3125 Z M 134.652344 61.3125 " clip-rule="nonzero"/></clipPath></defs><path fill="#fefefe" d="M 310.25 679.414062 L 310.25 616.199219 L 282.15625 616.199219 L 282.15625 560.007812 L 254.058594 560.007812 L 254.058594 503.816406 L 225.964844 503.816406 L 225.964844 440.601562 L 190.84375 440.601562 L 190.84375 412.503906 L 162.75 412.503906 L 162.75 356.3125 L 225.964844 356.3125 L 225.964844 384.410156 L 254.058594 384.410156 L 254.058594 468.695312 L 282.15625 468.695312 L 282.15625 89.40625 L 338.347656 89.40625 L 338.347656 356.3125 L 366.441406 356.3125 L 366.441406 236.90625 L 429.65625 236.90625 L 429.65625 356.3125 L 457.753906 356.3125 L 457.753906 265.003906 L 513.945312 265.003906 L 513.945312 384.410156 L 542.039062 384.410156 L 542.039062 293.097656 L 577.160156 293.097656 L 577.160156 328.21875 L 605.253906 328.21875 L 605.253906 531.910156 L 577.160156 531.910156 L 577.160156 616.199219 L 542.039062 616.199219 L 542.039062 679.414062 Z M 310.25 679.414062 " fill-opacity="1" fill-rule="nonzero"/><g clip-path="url(#9910d6c05e)"><path fill="#ffd058" d="M 282.15625 707.507812 L 282.15625 616.199219 L 254.058594 616.199219 L 254.058594 560.007812 L 225.964844 560.007812 L 225.964844 503.816406 L 190.84375 503.816406 L 190.84375 440.601562 L 162.75 440.601562 L 162.75 412.503906 L 134.652344 412.503906 L 134.652344 328.21875 L 225.964844 328.21875 L 225.964844 356.3125 L 254.058594 356.3125 L 254.058594 89.40625 L 282.15625 89.40625 L 282.15625 61.308594 L 338.347656 61.308594 L 338.347656 89.40625 L 366.441406 89.40625 L 366.441406 208.8125 L 429.65625 208.8125 L 429.65625 236.90625 L 513.945312 236.90625 L 513.945312 265.003906 L 577.160156 265.003906 L 577.160156 293.097656 L 605.253906 293.097656 L 605.253906 328.21875 L 633.351562 328.21875 L 633.351562 531.910156 L 605.253906 531.910156 L 605.253906 616.199219 L 577.160156 616.199219 L 577.160156 707.507812 Z M 542.039062 679.414062 L 542.039062 616.199219 L 577.160156 616.199219 L 577.160156 531.910156 L 605.253906 531.910156 L 605.253906 328.21875 L 577.160156 328.21875 L 577.160156 293.097656 L 542.039062 293.097656 L 542.039062 384.410156 L 513.945312 384.410156 L 513.945312 265.003906 L 457.753906 265.003906 L 457.753906 356.3125 L 429.65625 356.3125 L 429.65625 236.90625 L 366.441406 236.90625 L 366.441406 356.3125 L 338.347656 356.3125 L 338.347656 89.40625 L 282.15625 89.40625 L 282.15625 468.695312 L 254.058594 468.695312 L 254.058594 384.410156 L 225.964844 384.410156 L 225.964844 356.3125 L 162.75 356.3125 L 162.75 412.503906 L 190.84375 412.503906 L 190.84375 440.601562 L 225.964844 440.601562 L 225.964844 503.816406 L 254.058594 503.816406 L 254.058594 560.007812 L 282.15625 560.007812 L 282.15625 616.199219 L 310.25 616.199219 L 310.25 679.414062 Z M 542.039062 679.414062 " fill-opacity="1" fill-rule="nonzero"/></g></svg>